<svg width="18" height="18" viewBox="0 0 18 18" fill="none" xmlns="http://www.w3.org/2000/svg">
<path fill-rule="evenodd" clip-rule="evenodd" d="M3.56672 7.2193C3.66787 7.11827 3.805 7.06152 3.94797 7.06152C4.09093 7.06152 4.22806 7.11827 4.32922 7.2193L8.90709 11.7972C8.9238 11.8139 8.94364 11.8272 8.96549 11.8363C8.98734 11.8453 9.01076 11.85 9.03442 11.85C9.05807 11.85 9.08149 11.8453 9.10334 11.8363C9.12519 11.8272 9.14503 11.8139 9.16174 11.7972L13.7396 7.2193C13.8419 7.124 13.9772 7.07212 14.1169 7.07459C14.2567 7.07706 14.39 7.13368 14.4889 7.23252C14.5877 7.33137 14.6444 7.46472 14.6468 7.60449C14.6493 7.74426 14.5974 7.87953 14.5021 7.9818L9.92424 12.5597C9.80734 12.6766 9.66856 12.7693 9.51583 12.8326C9.36309 12.8959 9.19938 12.9284 9.03406 12.9284C8.86873 12.9284 8.70503 12.8959 8.55229 12.8326C8.39955 12.7693 8.26077 12.6766 8.14387 12.5597L3.56672 7.9818C3.46568 7.88065 3.40894 7.74352 3.40894 7.60055C3.40894 7.45758 3.46568 7.32046 3.56672 7.2193Z" fill="black"/>
</svg>
