<svg width="19" height="19" viewBox="0 0 19 19" fill="none" xmlns="http://www.w3.org/2000/svg">
<path fill-rule="evenodd" clip-rule="evenodd" d="M0.778126 18.2218C0.578156 18.0217 0.46582 17.7505 0.46582 17.4676C0.46582 17.1848 0.578156 16.9135 0.778126 16.7135L14.9584 2.53324H5.79999C5.5171 2.53324 5.24578 2.42086 5.04575 2.22082C4.84571 2.02078 4.73333 1.74947 4.73333 1.46657C4.73333 1.18367 4.84571 0.912361 5.04575 0.712322C5.24578 0.512283 5.5171 0.399902 5.79999 0.399902H17.5333C17.8162 0.399902 18.0875 0.512283 18.2876 0.712322C18.4876 0.912361 18.6 1.18367 18.6 1.46657V13.1999C18.6 13.4828 18.4876 13.7541 18.2876 13.9542C18.0875 14.1542 17.8162 14.2666 17.5333 14.2666C17.2504 14.2666 16.9791 14.1542 16.7791 13.9542C16.579 13.7541 16.4667 13.4828 16.4667 13.1999V4.0415L2.28853 18.2218C2.18944 18.3211 2.07173 18.3999 1.94214 18.4537C1.81255 18.5075 1.67363 18.5351 1.53333 18.5351C1.39302 18.5351 1.2541 18.5075 1.12451 18.4537C0.994918 18.3999 0.87721 18.3211 0.778126 18.2218Z" fill="#585858"/>
</svg>
