<svg width="113" height="24" viewBox="0 0 113 24" fill="none" xmlns="http://www.w3.org/2000/svg">
<g clip-path="url(#clip0_2005_48)">
<path d="M31.279 8C33.4368 8 35.186 6.20914 35.186 4C35.186 1.79086 33.4368 0 31.279 0C29.1213 0 27.3721 1.79086 27.3721 4C27.3721 6.20914 29.1213 8 31.279 8Z" fill="#2D2F32"/>
<path d="M30.3019 22C30.3019 17.5817 26.5848 14 21.9996 14C17.4143 14 13.6973 17.5817 13.6973 22" stroke="#2D2F32" stroke-width="4" stroke-linecap="round"/>
<path d="M2.95312 22C2.95312 10.9543 12.1365 2 23.4648 2" stroke="#2D2F32" stroke-width="4" stroke-linecap="round"/>
<path d="M41.0464 22C41.0464 17.5049 39.9574 13.3533 38.1162 10" stroke="#2D2F32" stroke-width="4" stroke-linecap="round"/>
<path d="M58.0521 14.602V23.5102H55V14.602H58.0521ZM55 12.3367V4.53065H58.0521V12.3367H55ZM58.0521 14.602V12.3367H62.8211C64.5803 12.3367 65.8308 12.0102 66.5726 11.3571C67.3357 10.6837 67.7172 9.70412 67.7172 8.41841C67.7172 7.1531 67.3357 6.19392 66.5726 5.54086C65.8308 4.86739 64.5803 4.53065 62.8211 4.53065H58.0521V2.08167H63.7113C66.1063 2.08167 67.9079 2.6633 69.1161 3.82657C70.3454 4.98984 70.9601 6.48984 70.9601 8.32657C70.9601 9.79596 70.5679 11.0714 69.7837 12.1531C68.9995 13.2143 67.8231 13.9388 66.2547 14.3265L72.2318 23.5102H68.8617L63.0754 14.602H58.0521Z" fill="#2D2F32"/>
<path d="M81.2329 3.79592C80.0248 3.79592 79.1982 3.03061 79.1982 1.89796C79.1982 0.734694 80.0248 0 81.2329 0C82.4411 0 83.2677 0.734694 83.2677 1.89796C83.2677 3.03061 82.4411 3.79592 81.2329 3.79592ZM74.4293 19.1633L77.1635 11.7551C77.545 10.7449 77.9901 9.4898 77.9901 9.06122C77.9901 8.66327 77.8311 8.54082 77.5768 8.54082C76.623 8.54082 75.2241 10.1633 74.016 12.0918H73.2529C74.7154 9.36735 77.0999 6.91837 79.4208 6.91837C80.5653 6.91837 81.1058 7.71429 81.1058 8.60204C81.1058 9.39796 80.6925 10.4694 80.1838 11.8163L77.4178 19.2551C77.1635 19.9286 76.7501 21 76.7501 21.4286C76.7501 21.8878 76.8773 22.1327 77.3224 22.1327C78.4988 22.1327 79.9294 20.2041 80.9786 17.9694H81.7098C80.5653 20.6939 78.4988 23.7857 75.8917 23.7857C74.2067 23.7857 73.6344 22.9286 73.6344 21.8265C73.6344 21.1224 73.9842 20.3878 74.4293 19.1633Z" fill="#2D2F32"/>
<path d="M85.4443 18.7653C85.4443 19.5408 85.8257 20.2245 86.5887 20.8163C87.3517 21.4082 88.3267 21.7041 89.5137 21.7041C90.531 21.7041 91.3789 21.5 92.0572 21.0918C92.7566 20.6837 93.1063 20.1429 93.1063 19.4694C93.1063 19.1429 93.0109 18.8469 92.8201 18.5816C92.6506 18.2959 92.4492 18.0612 92.2161 17.8776C92.0041 17.6939 91.665 17.5102 91.1987 17.3265C90.7324 17.1224 90.3403 16.9694 90.0223 16.8673C89.7044 16.7653 89.2382 16.6224 88.6236 16.4388C87.7334 16.1735 87.0232 15.949 86.4933 15.7653C85.9846 15.5612 85.4125 15.2857 84.7766 14.9388C84.1408 14.5714 83.6638 14.1429 83.3458 13.6531C83.0491 13.1429 82.9007 12.5612 82.9007 11.9082C82.9007 10.6224 83.473 9.50001 84.6175 8.54083C85.7621 7.58164 87.2776 7.10205 89.1639 7.10205C90.9443 7.10205 92.4068 7.51021 93.5514 8.32654C94.7171 9.14287 95.4271 10.2653 95.6815 11.6939H92.5976C92.5764 11.1837 92.2692 10.6837 91.6757 10.1939C91.0822 9.70409 90.2767 9.45919 89.2593 9.45919C88.3267 9.45919 87.5531 9.65307 86.9384 10.0408C86.345 10.4286 86.0482 10.9592 86.0482 11.6327C86.0482 12.0408 86.2497 12.4082 86.6524 12.7347C87.0763 13.0408 87.5213 13.2755 87.9876 13.4388C88.4751 13.602 89.1639 13.8061 90.0541 14.051C90.8172 14.2551 91.4106 14.4286 91.8345 14.5714C92.2585 14.6939 92.7883 14.9082 93.4242 15.2143C94.0812 15.5 94.5793 15.7959 94.9185 16.102C95.2788 16.3878 95.5861 16.7755 95.8405 17.2653C96.116 17.7551 96.2538 18.2959 96.2538 18.8878C96.2538 20.4388 95.6498 21.6837 94.4417 22.6224C93.2334 23.5408 91.5696 24 89.4501 24C87.4577 24 85.8469 23.5612 84.6175 22.6837C83.4094 21.8061 82.6571 20.5 82.3604 18.7653H85.4443Z" fill="#2D2F32"/>
<path d="M97.421 14.0816C97.6753 11.898 98.5019 10.1939 99.9008 8.9694C101.321 7.7245 103.165 7.10205 105.433 7.10205C107.574 7.10205 109.365 7.79593 110.806 9.18368C112.269 10.551 113 12.6122 113 15.3673V16.2857H100.569V14.0816H109.884C109.8 12.5918 109.333 11.449 108.485 10.6531C107.638 9.85715 106.62 9.45919 105.433 9.45919C104.034 9.45919 102.922 9.86736 102.095 10.6837C101.268 11.4796 100.76 12.6122 100.569 14.0816H97.421ZM97.3574 16.2857H100.569C100.654 17.9796 101.12 19.2857 101.968 20.2041C102.816 21.1225 104.024 21.5816 105.592 21.5816C107.606 21.5816 108.994 20.7857 109.757 19.1939H112.968C111.781 22.3571 109.323 23.9388 105.592 23.9388C103.176 23.9388 101.237 23.2653 99.7736 21.9184C98.3324 20.551 97.5269 18.6735 97.3574 16.2857Z" fill="#2D2F32"/>
</g>
<defs>
<clipPath id="clip0_2005_48">
<rect width="113" height="24" fill="white"/>
</clipPath>
</defs>
</svg>
