<svg width="60" height="60" viewBox="0 0 60 60" fill="none" xmlns="http://www.w3.org/2000/svg">
<rect x="0.5" y="0.5" width="59" height="59" rx="29.5" fill="#E0E3E7"/>
<rect x="0.5" y="0.5" width="59" height="59" rx="29.5" stroke="#E0E3E7"/>
<path d="M36 20C37.0609 20 38.0783 20.4436 38.8284 21.2332C39.5786 22.0229 40 23.0938 40 24.2106V32.6317C40 33.7484 39.5786 34.8194 38.8284 35.609C38.0783 36.3986 37.0609 36.8422 36 36.8422H33.414L30.707 39.6917C30.5348 39.873 30.3057 39.9818 30.0627 39.9979C29.8197 40.014 29.5794 39.9362 29.387 39.7791L29.293 39.6917L26.585 36.8422H24C22.9738 36.8422 21.9868 36.427 21.2432 35.6825C20.4996 34.938 20.0563 33.9211 20.005 32.8422L20 32.6317V24.2106C20 23.0938 20.4214 22.0229 21.1716 21.2332C21.9217 20.4436 22.9391 20 24 20H36ZM32 29.4738H26C25.7348 29.4738 25.4804 29.5847 25.2929 29.7821C25.1054 29.9795 25 30.2472 25 30.5264C25 30.8056 25.1054 31.0733 25.2929 31.2707C25.4804 31.4681 25.7348 31.579 26 31.579H32C32.2652 31.579 32.5196 31.4681 32.7071 31.2707C32.8946 31.0733 33 30.8056 33 30.5264C33 30.2472 32.8946 29.9795 32.7071 29.7821C32.5196 29.5847 32.2652 29.4738 32 29.4738ZM34 25.2632H26C25.7348 25.2632 25.4804 25.3741 25.2929 25.5715C25.1054 25.7689 25 26.0367 25 26.3158C25 26.595 25.1054 26.8628 25.2929 27.0602C25.4804 27.2576 25.7348 27.3685 26 27.3685H34C34.2652 27.3685 34.5196 27.2576 34.7071 27.0602C34.8946 26.8628 35 26.595 35 26.3158C35 26.0367 34.8946 25.7689 34.7071 25.5715C34.5196 25.3741 34.2652 25.2632 34 25.2632Z" fill="#1E1F21"/>
</svg>
