<svg width="60" height="60" viewBox="0 0 60 60" fill="none" xmlns="http://www.w3.org/2000/svg">
<rect x="0.5" y="0.5" width="59" height="59" rx="29.5" fill="#E0E3E7"/>
<rect x="0.5" y="0.5" width="59" height="59" rx="29.5" stroke="#E0E3E7"/>
<path d="M40 36.2476L39.7718 36.0627C39.1246 35.5327 38.558 34.9252 38.0872 34.2564C37.5728 33.3334 37.2647 32.3251 37.1812 31.291V28.2456C37.1857 26.6215 36.5443 25.0518 35.3777 23.8315C34.211 22.6111 32.5994 21.8241 30.8456 21.6183V20.823C30.8456 20.6047 30.7512 20.3954 30.5832 20.2411C30.4152 20.0867 30.1873 20 29.9497 20C29.712 20 29.4841 20.0867 29.3161 20.2411C29.1481 20.3954 29.0537 20.6047 29.0537 20.823V21.6306C27.3156 21.8513 25.7235 22.6431 24.5722 23.8593C23.4209 25.0755 22.7884 26.6338 22.7919 28.2456V31.291C22.7084 32.3251 22.4004 33.3334 21.8859 34.2564C21.4234 34.9236 20.8659 35.5311 20.2282 36.0627L20 36.2476V37.9861H40V36.2476Z" fill="#1E1F21"/>
<path d="M28.3574 38.5943C28.4114 38.9839 28.6046 39.3409 28.9014 39.5993C29.1982 39.8577 29.5786 40 29.9722 40C30.3659 40 30.7462 39.8577 31.043 39.5993C31.3398 39.3409 31.5331 38.9839 31.587 38.5943H28.3574Z" fill="#1E1F21"/>
</svg>
