<svg width="192" height="46" viewBox="0 0 192 46" fill="none" xmlns="http://www.w3.org/2000/svg">
<g filter="url(#filter0_ddi_2683_44079)">
<path d="M76.6658 43.0004H64.222C64.222 38.5075 63.0722 34.0937 60.8945 30.2317L71.6659 23.8359C74.9361 29.6392 76.6658 36.2648 76.6658 43.0004Z" fill="url(#paint0_linear_2683_44079)"/>
</g>
<path opacity="0.3" d="M76.6376 43.0003H64.1679C64.1679 43.0003 64.3486 39.7475 63.3848 36.1329C62.6588 33.4101 66.5129 32.1916 68.4591 31.756C69.1614 31.5988 69.8964 31.6397 70.5781 31.8704C77.5711 34.2369 76.6376 39.6071 76.6376 43.0003Z" fill="url(#paint1_linear_2683_44079)"/>
<path opacity="0.2" d="M72.9262 29.1141C73.0774 29.0701 73.2384 29.1423 73.3065 29.2844C74.3267 31.4115 74.9764 32.7316 75.1557 34.6139C75.1777 34.8456 74.9468 35.0135 74.7296 34.9297L73.2763 34.3693C73.1622 34.3253 73.0829 34.2192 73.0712 34.0975C72.8466 31.7509 72.7077 31.8907 71.7875 29.8249C71.7086 29.6478 71.8042 29.4406 71.9903 29.3864L72.9262 29.1141Z" fill="url(#paint2_linear_2683_44079)"/>
<g filter="url(#filter1_dii_2683_44079)">
<path d="M14.4438 42.9991H2C2 21.873 18.7469 4.68555 39.3315 4.68555V17.4567C25.6084 17.4567 14.4438 28.915 14.4438 42.9991Z" fill="url(#paint3_linear_2683_44079)"/>
</g>
<path opacity="0.3" d="M20.3957 13.4312L19.8104 13.2744C19.5586 13.2069 18.696 13.3383 17.2594 14.4032C16.054 15.2968 14.6553 16.4186 14.2699 17.1816C14.1586 17.4019 14.3302 17.6168 14.5699 17.6759L17.5915 18.4212C17.6906 18.4456 17.7911 18.3863 17.8175 18.2877C18.1025 16.9214 19.3199 15.562 20.5725 14.6374C21.0002 14.3217 20.9092 13.5688 20.3957 13.4312Z" fill="url(#paint4_linear_2683_44079)"/>
<g filter="url(#filter2_di_2683_44079)">
<path d="M58.0121 42.9614H45.5683C45.5683 39.4392 42.7784 36.5759 39.3464 36.5759C35.9144 36.5759 33.1245 39.4392 33.1245 42.9614H20.6807C20.6807 32.3997 29.0529 23.8047 39.3464 23.8047C49.6399 23.8047 58.0121 32.3997 58.0121 42.9614Z" fill="url(#paint5_linear_2683_44079)"/>
</g>
<path opacity="0.2" d="M32.9413 28.4782C32.7824 28.2833 32.5143 28.214 32.2827 28.312C30.646 29.0042 30.5883 29.2683 29.5746 30.6251C29.4155 30.838 29.4187 31.1332 29.5866 31.3392L29.7622 31.5544C30.0039 31.8509 30.462 31.8307 30.673 31.5115C31.3934 30.4217 31.5846 30.1121 32.8644 29.5966C33.2305 29.4491 33.3592 28.9906 33.1097 28.6847L32.9413 28.4782Z" fill="url(#paint6_linear_2683_44079)"/>
<path opacity="0.2" d="M47.2101 30.1369C47.4709 29.5428 48 28.7846 48.752 28.4669C48.8279 28.4349 48.9114 28.4247 48.9928 28.437C49.9135 28.5755 50.509 29.2672 50.9248 29.8477C51.1433 30.1528 51.0139 30.5979 50.6683 30.7444L48.8919 31.4978C48.6753 31.5896 48.4247 31.5387 48.2579 31.3729C47.7802 30.8983 47.6621 30.8245 47.4766 30.7488C47.2297 30.648 47.103 30.3811 47.2101 30.1369Z" fill="url(#paint7_linear_2683_44079)"/>
<g filter="url(#filter3_ddi_2683_44079)">
<path d="M56.4442 22.1568C61.5986 22.1568 65.7771 17.8684 65.7771 12.5784C65.7771 7.28838 61.5986 3 56.4442 3C51.2898 3 47.1113 7.28838 47.1113 12.5784C47.1113 17.8684 51.2898 22.1568 56.4442 22.1568Z" fill="url(#paint8_linear_2683_44079)"/>
</g>
<path opacity="0.2" d="M63.4714 9.45695C63.5805 9.31137 63.5964 9.11551 63.5121 8.95423C62.7652 7.52486 62.295 6.72556 60.9034 6.26742C60.7021 6.20113 60.4829 6.26944 60.3423 6.42815C60.061 6.74596 60.2241 7.24424 60.6238 7.38726C61.5118 7.70502 62.0714 8.19361 62.6261 9.35507C62.786 9.68973 63.2489 9.75367 63.4714 9.45695Z" fill="url(#paint9_linear_2683_44079)"/>
<path opacity="0.3" d="M62.7118 19.6002C58.0195 23.5089 52.7372 22.6695 49.5999 18.874C48.1215 17.0854 47.0216 15.5472 47.3635 12.8639C47.7054 10.1806 51.6682 9.77598 56.11 9.07088C60.5518 8.36579 67.4041 15.6915 62.7118 19.6002Z" fill="url(#paint10_linear_2683_44079)"/>
<g filter="url(#filter4_ddi_2683_44079)">
<path d="M101.58 27.3367V42.1837H96.6787V27.3367H101.58ZM96.6787 23.5612V10.551H101.58V23.5612H96.6787ZM101.58 27.3367V23.5612H109.237C112.062 23.5612 114.07 23.017 115.261 21.9286C116.486 20.8061 117.099 19.1735 117.099 17.0306C117.099 14.9218 116.486 13.3231 115.261 12.2347C114.07 11.1122 112.062 10.551 109.237 10.551H101.58V6.46939H110.667C114.512 6.46939 117.405 7.43877 119.345 9.37755C121.319 11.3163 122.306 13.8163 122.306 16.8776C122.306 19.3265 121.677 21.4524 120.417 23.2551C119.158 25.0238 117.269 26.2313 114.751 26.8776L124.348 42.1837H118.937L109.646 27.3367H101.58Z" fill="url(#paint11_linear_2683_44079)"/>
<path d="M138.801 9.32653C136.861 9.32653 135.534 8.05102 135.534 6.16326C135.534 4.22449 136.861 3 138.801 3C140.741 3 142.068 4.22449 142.068 6.16326C142.068 8.05102 140.741 9.32653 138.801 9.32653ZM127.876 34.9388L132.267 22.5918C132.879 20.9082 133.594 18.8163 133.594 18.102C133.594 17.4388 133.339 17.2347 132.93 17.2347C131.399 17.2347 129.153 19.9388 127.213 23.1531H125.987C128.336 18.6122 132.165 14.5306 135.891 14.5306C137.729 14.5306 138.597 15.8571 138.597 17.3367C138.597 18.6633 137.933 20.449 137.116 22.6939L132.675 35.0918C132.267 36.2143 131.603 38 131.603 38.7143C131.603 39.4796 131.807 39.8878 132.522 39.8878C134.411 39.8878 136.708 36.6735 138.393 32.949H139.567C137.729 37.4898 134.411 42.6429 130.225 42.6429C127.519 42.6429 126.6 41.2143 126.6 39.3776C126.6 38.2041 127.162 36.9796 127.876 34.9388Z" fill="url(#paint12_linear_2683_44079)"/>
<path d="M145.564 34.2755C145.564 35.568 146.177 36.7075 147.402 37.6939C148.627 38.6803 150.193 39.1735 152.099 39.1735C153.732 39.1735 155.094 38.8333 156.183 38.1531C157.306 37.4728 157.867 36.5714 157.867 35.449C157.867 34.9048 157.714 34.4116 157.408 33.9694C157.136 33.4932 156.812 33.102 156.438 32.7959C156.098 32.4898 155.553 32.1837 154.804 31.8776C154.056 31.5374 153.426 31.2823 152.915 31.1122C152.405 30.9422 151.656 30.7041 150.669 30.398C149.24 29.9558 148.1 29.5816 147.249 29.2755C146.432 28.9354 145.513 28.4762 144.492 27.898C143.471 27.2857 142.705 26.5714 142.195 25.7551C141.718 24.9048 141.48 23.9354 141.48 22.8469C141.48 20.7041 142.399 18.8333 144.237 17.2347C146.075 15.6361 148.508 14.8367 151.537 14.8367C154.396 14.8367 156.744 15.517 158.582 16.8776C160.454 18.2381 161.594 20.1088 162.002 22.4898H157.051C157.017 21.6395 156.523 20.8061 155.57 19.9898C154.617 19.1735 153.324 18.7653 151.69 18.7653C150.193 18.7653 148.951 19.0884 147.964 19.7347C147.011 20.381 146.534 21.2653 146.534 22.3878C146.534 23.068 146.857 23.6803 147.504 24.2245C148.185 24.7347 148.899 25.1258 149.648 25.398C150.431 25.6701 151.537 26.0102 152.967 26.4184C154.192 26.7585 155.145 27.0476 155.825 27.2857C156.506 27.4898 157.357 27.8469 158.378 28.3571C159.433 28.8333 160.233 29.3265 160.777 29.8367C161.356 30.3129 161.849 30.9592 162.258 31.7755C162.7 32.5918 162.921 33.4932 162.921 34.4796C162.921 37.0646 161.951 39.1395 160.012 40.7041C158.072 42.2347 155.4 43 151.997 43C148.797 43 146.211 42.2687 144.237 40.8061C142.297 39.3435 141.089 37.1667 140.612 34.2755H145.564Z" fill="url(#paint13_linear_2683_44079)"/>
<path d="M164.796 26.4694C165.204 22.8299 166.532 19.9898 168.778 17.949C171.058 15.8741 174.019 14.8367 177.661 14.8367C181.098 14.8367 183.974 15.9932 186.288 18.3061C188.637 20.585 189.811 24.0204 189.811 28.6122V30.1429H169.85V26.4694H184.808C184.672 23.9864 183.923 22.0816 182.562 20.7551C181.2 19.4286 179.567 18.7653 177.661 18.7653C175.414 18.7653 173.628 19.4456 172.3 20.8061C170.973 22.1327 170.156 24.0204 169.85 26.4694H164.796ZM164.694 30.1429H169.85C169.986 32.966 170.735 35.1429 172.096 36.6735C173.458 38.2041 175.397 38.9694 177.916 38.9694C181.149 38.9694 183.378 37.6429 184.604 34.9898H189.76C187.854 40.2619 183.906 42.898 177.916 42.898C174.036 42.898 170.922 41.7755 168.574 39.5306C166.259 37.2517 164.966 34.1224 164.694 30.1429Z" fill="url(#paint14_linear_2683_44079)"/>
</g>
<defs>
<filter id="filter0_ddi_2683_44079" x="58.889" y="21.2574" width="19.7825" height="24.2194" filterUnits="userSpaceOnUse" color-interpolation-filters="sRGB">
<feFlood flood-opacity="0" result="BackgroundImageFix"/>
<feColorMatrix in="SourceAlpha" type="matrix" values="0 0 0 0 0 0 0 0 0 0 0 0 0 0 0 0 0 0 127 0" result="hardAlpha"/>
<feOffset dy="-0.573001"/>
<feGaussianBlur stdDeviation="1.00275"/>
<feColorMatrix type="matrix" values="0 0 0 0 0 0 0 0 0 0 0 0 0 0 0 0 0 0 0.25 0"/>
<feBlend mode="normal" in2="BackgroundImageFix" result="effect1_dropShadow_2683_44079"/>
<feColorMatrix in="SourceAlpha" type="matrix" values="0 0 0 0 0 0 0 0 0 0 0 0 0 0 0 0 0 0 127 0" result="hardAlpha"/>
<feOffset dy="1.04429"/>
<feGaussianBlur stdDeviation="0.716251"/>
<feColorMatrix type="matrix" values="0 0 0 0 0.455197 0 0 0 0 0.407684 0 0 0 0 0.407684 0 0 0 0.55 0"/>
<feBlend mode="normal" in2="effect1_dropShadow_2683_44079" result="effect2_dropShadow_2683_44079"/>
<feBlend mode="normal" in="SourceGraphic" in2="effect2_dropShadow_2683_44079" result="shape"/>
<feColorMatrix in="SourceAlpha" type="matrix" values="0 0 0 0 0 0 0 0 0 0 0 0 0 0 0 0 0 0 127 0" result="hardAlpha"/>
<feOffset dx="1.40385" dy="-0.573001"/>
<feGaussianBlur stdDeviation="2.0055"/>
<feComposite in2="hardAlpha" operator="arithmetic" k2="-1" k3="1"/>
<feColorMatrix type="matrix" values="0 0 0 0 0.532991 0 0 0 0 0.424414 0 0 0 0 0.424414 0 0 0 0.5 0"/>
<feBlend mode="normal" in2="shape" result="effect3_innerShadow_2683_44079"/>
</filter>
<filter id="filter1_dii_2683_44079" x="-0.00550318" y="1.82054" width="41.0556" height="42.612" filterUnits="userSpaceOnUse" color-interpolation-filters="sRGB">
<feFlood flood-opacity="0" result="BackgroundImageFix"/>
<feColorMatrix in="SourceAlpha" type="matrix" values="0 0 0 0 0 0 0 0 0 0 0 0 0 0 0 0 0 0 127 0" result="hardAlpha"/>
<feOffset dx="-0.573001"/>
<feGaussianBlur stdDeviation="0.716251"/>
<feColorMatrix type="matrix" values="0 0 0 0 0.412425 0 0 0 0 0.869135 0 0 0 0 0.73513 0 0 0 0.55 0"/>
<feBlend mode="normal" in2="BackgroundImageFix" result="effect1_dropShadow_2683_44079"/>
<feBlend mode="normal" in="SourceGraphic" in2="effect1_dropShadow_2683_44079" result="shape"/>
<feColorMatrix in="SourceAlpha" type="matrix" values="0 0 0 0 0 0 0 0 0 0 0 0 0 0 0 0 0 0 127 0" result="hardAlpha"/>
<feOffset dx="1.719" dy="-2.865"/>
<feGaussianBlur stdDeviation="2.14875"/>
<feComposite in2="hardAlpha" operator="arithmetic" k2="-1" k3="1"/>
<feColorMatrix type="matrix" values="0 0 0 0 0.054902 0 0 0 0 0.717647 0 0 0 0 0.560784 0 0 0 1 0"/>
<feBlend mode="normal" in2="shape" result="effect2_innerShadow_2683_44079"/>
<feColorMatrix in="SourceAlpha" type="matrix" values="0 0 0 0 0 0 0 0 0 0 0 0 0 0 0 0 0 0 127 0" result="hardAlpha"/>
<feOffset dx="0.945451" dy="0.974101"/>
<feGaussianBlur stdDeviation="1.63305"/>
<feComposite in2="hardAlpha" operator="arithmetic" k2="-1" k3="1"/>
<feColorMatrix type="matrix" values="0 0 0 0 0.0567361 0 0 0 0 0.716667 0 0 0 0 0.55954 0 0 0 1 0"/>
<feBlend mode="normal" in2="effect2_innerShadow_2683_44079" result="effect3_innerShadow_2683_44079"/>
</filter>
<filter id="filter2_di_2683_44079" x="18.6752" y="22.3722" width="41.3134" height="22.0213" filterUnits="userSpaceOnUse" color-interpolation-filters="sRGB">
<feFlood flood-opacity="0" result="BackgroundImageFix"/>
<feColorMatrix in="SourceAlpha" type="matrix" values="0 0 0 0 0 0 0 0 0 0 0 0 0 0 0 0 0 0 127 0" result="hardAlpha"/>
<feOffset dx="-0.573001"/>
<feGaussianBlur stdDeviation="0.716251"/>
<feColorMatrix type="matrix" values="0 0 0 0 0.4 0 0 0 0 0.211765 0 0 0 0 0.34902 0 0 0 0.55 0"/>
<feBlend mode="normal" in2="BackgroundImageFix" result="effect1_dropShadow_2683_44079"/>
<feBlend mode="normal" in="SourceGraphic" in2="effect1_dropShadow_2683_44079" result="shape"/>
<feColorMatrix in="SourceAlpha" type="matrix" values="0 0 0 0 0 0 0 0 0 0 0 0 0 0 0 0 0 0 127 0" result="hardAlpha"/>
<feOffset dx="1.97685" dy="-0.859501"/>
<feGaussianBlur stdDeviation="1.57575"/>
<feComposite in2="hardAlpha" operator="arithmetic" k2="-1" k3="1"/>
<feColorMatrix type="matrix" values="0 0 0 0 0.027451 0 0 0 0 0.333333 0 0 0 0 0.972549 0 0 0 0.7 0"/>
<feBlend mode="normal" in2="shape" result="effect2_innerShadow_2683_44079"/>
</filter>
<filter id="filter3_ddi_2683_44079" x="45.1058" y="0.421496" width="23.5365" height="24.2116" filterUnits="userSpaceOnUse" color-interpolation-filters="sRGB">
<feFlood flood-opacity="0" result="BackgroundImageFix"/>
<feColorMatrix in="SourceAlpha" type="matrix" values="0 0 0 0 0 0 0 0 0 0 0 0 0 0 0 0 0 0 127 0" result="hardAlpha"/>
<feOffset dy="-0.573001"/>
<feGaussianBlur stdDeviation="1.00275"/>
<feColorMatrix type="matrix" values="0 0 0 0 0 0 0 0 0 0 0 0 0 0 0 0 0 0 0.25 0"/>
<feBlend mode="normal" in2="BackgroundImageFix" result="effect1_dropShadow_2683_44079"/>
<feColorMatrix in="SourceAlpha" type="matrix" values="0 0 0 0 0 0 0 0 0 0 0 0 0 0 0 0 0 0 127 0" result="hardAlpha"/>
<feOffset dy="1.04429"/>
<feGaussianBlur stdDeviation="0.716251"/>
<feColorMatrix type="matrix" values="0 0 0 0 0.4 0 0 0 0 0.211765 0 0 0 0 0.34902 0 0 0 0.55 0"/>
<feBlend mode="normal" in2="effect1_dropShadow_2683_44079" result="effect2_dropShadow_2683_44079"/>
<feBlend mode="normal" in="SourceGraphic" in2="effect2_dropShadow_2683_44079" result="shape"/>
<feColorMatrix in="SourceAlpha" type="matrix" values="0 0 0 0 0 0 0 0 0 0 0 0 0 0 0 0 0 0 127 0" result="hardAlpha"/>
<feOffset dx="2.865" dy="0.1146"/>
<feGaussianBlur stdDeviation="1.91955"/>
<feComposite in2="hardAlpha" operator="arithmetic" k2="-1" k3="1"/>
<feColorMatrix type="matrix" values="0 0 0 0 0.936811 0 0 0 0 0.509157 0 0 0 0 0.29533 0 0 0 1 0"/>
<feBlend mode="normal" in2="shape" result="effect3_innerShadow_2683_44079"/>
</filter>
<filter id="filter4_ddi_2683_44079" x="94.6732" y="0.421496" width="97.1428" height="45.0553" filterUnits="userSpaceOnUse" color-interpolation-filters="sRGB">
<feFlood flood-opacity="0" result="BackgroundImageFix"/>
<feColorMatrix in="SourceAlpha" type="matrix" values="0 0 0 0 0 0 0 0 0 0 0 0 0 0 0 0 0 0 127 0" result="hardAlpha"/>
<feOffset dy="-0.573001"/>
<feGaussianBlur stdDeviation="1.00275"/>
<feColorMatrix type="matrix" values="0 0 0 0 0 0 0 0 0 0 0 0 0 0 0 0 0 0 0.25 0"/>
<feBlend mode="normal" in2="BackgroundImageFix" result="effect1_dropShadow_2683_44079"/>
<feColorMatrix in="SourceAlpha" type="matrix" values="0 0 0 0 0 0 0 0 0 0 0 0 0 0 0 0 0 0 127 0" result="hardAlpha"/>
<feOffset dy="1.04429"/>
<feGaussianBlur stdDeviation="0.716251"/>
<feColorMatrix type="matrix" values="0 0 0 0 0.455197 0 0 0 0 0.407684 0 0 0 0 0.407684 0 0 0 0.55 0"/>
<feBlend mode="normal" in2="effect1_dropShadow_2683_44079" result="effect2_dropShadow_2683_44079"/>
<feBlend mode="normal" in="SourceGraphic" in2="effect2_dropShadow_2683_44079" result="shape"/>
<feColorMatrix in="SourceAlpha" type="matrix" values="0 0 0 0 0 0 0 0 0 0 0 0 0 0 0 0 0 0 127 0" result="hardAlpha"/>
<feOffset dx="1.40385" dy="-0.573001"/>
<feGaussianBlur stdDeviation="2.0055"/>
<feComposite in2="hardAlpha" operator="arithmetic" k2="-1" k3="1"/>
<feColorMatrix type="matrix" values="0 0 0 0 0.532991 0 0 0 0 0.424414 0 0 0 0 0.424414 0 0 0 0.5 0"/>
<feBlend mode="normal" in2="shape" result="effect3_innerShadow_2683_44079"/>
</filter>
<linearGradient id="paint0_linear_2683_44079" x1="68.7802" y1="23.8359" x2="68.7802" y2="43.0004" gradientUnits="userSpaceOnUse">
<stop stop-color="#2E0A0A"/>
<stop offset="0.505208" stop-color="#251010"/>
<stop offset="1" stop-color="#1E1A1A"/>
</linearGradient>
<linearGradient id="paint1_linear_2683_44079" x1="71.8546" y1="35.2896" x2="71.9158" y2="42.9998" gradientUnits="userSpaceOnUse">
<stop stop-color="#CF9A9A" stop-opacity="0"/>
<stop offset="1" stop-color="#574343"/>
</linearGradient>
<linearGradient id="paint2_linear_2683_44079" x1="74.0027" y1="34.0211" x2="71.7468" y2="29.3084" gradientUnits="userSpaceOnUse">
<stop stop-color="white" stop-opacity="0.1"/>
<stop offset="1" stop-color="white" stop-opacity="0.6"/>
</linearGradient>
<linearGradient id="paint3_linear_2683_44079" x1="34.2337" y1="4.68555" x2="7.43749" y2="37.9964" gradientUnits="userSpaceOnUse">
<stop stop-color="#2BE2AC"/>
<stop offset="0.453874" stop-color="#43EAB9"/>
<stop offset="1" stop-color="#69D5B5"/>
</linearGradient>
<linearGradient id="paint4_linear_2683_44079" x1="20.3997" y1="13.713" x2="17.3165" y2="18.5463" gradientUnits="userSpaceOnUse">
<stop stop-color="white" stop-opacity="0.8"/>
<stop offset="0.0001" stop-color="white" stop-opacity="0.8"/>
<stop offset="1" stop-color="white" stop-opacity="0.4"/>
</linearGradient>
<linearGradient id="paint5_linear_2683_44079" x1="51.0174" y1="41.9128" x2="43.9396" y2="20.5239" gradientUnits="userSpaceOnUse">
<stop stop-color="#B4C3E2"/>
<stop offset="0.520833" stop-color="#BDC5D3"/>
<stop offset="1" stop-color="#B4C3E2"/>
</linearGradient>
<linearGradient id="paint6_linear_2683_44079" x1="28.8896" y1="31.9373" x2="33.4918" y2="29.7489" gradientUnits="userSpaceOnUse">
<stop stop-color="white" stop-opacity="0.3"/>
<stop offset="1" stop-color="white"/>
</linearGradient>
<linearGradient id="paint7_linear_2683_44079" x1="50.364" y1="28.2011" x2="46.7138" y2="29.0094" gradientUnits="userSpaceOnUse">
<stop stop-color="white"/>
<stop offset="1" stop-color="white" stop-opacity="0.3"/>
</linearGradient>
<linearGradient id="paint8_linear_2683_44079" x1="58.9709" y1="2.99998" x2="58.665" y2="22.1599" gradientUnits="userSpaceOnUse">
<stop stop-color="#FEB951"/>
<stop offset="0.418177" stop-color="#F09917"/>
<stop offset="0.760417" stop-color="#F19914"/>
<stop offset="1" stop-color="#DA7222"/>
</linearGradient>
<linearGradient id="paint9_linear_2683_44079" x1="60.0242" y1="7.2304" x2="62.2633" y2="10.7253" gradientUnits="userSpaceOnUse">
<stop stop-color="white"/>
<stop offset="1" stop-color="white" stop-opacity="0.1"/>
</linearGradient>
<linearGradient id="paint10_linear_2683_44079" x1="57.7452" y1="12.9422" x2="57.3786" y2="21.6358" gradientUnits="userSpaceOnUse">
<stop stop-color="#EF8F46" stop-opacity="0"/>
<stop offset="1" stop-color="#DA7222"/>
</linearGradient>
<linearGradient id="paint11_linear_2683_44079" x1="143.245" y1="3" x2="143.245" y2="43" gradientUnits="userSpaceOnUse">
<stop stop-color="#2E0A0A"/>
<stop offset="0.505208" stop-color="#251010"/>
<stop offset="1" stop-color="#1E1A1A"/>
</linearGradient>
<linearGradient id="paint12_linear_2683_44079" x1="143.245" y1="3" x2="143.245" y2="43" gradientUnits="userSpaceOnUse">
<stop stop-color="#2E0A0A"/>
<stop offset="0.505208" stop-color="#251010"/>
<stop offset="1" stop-color="#1E1A1A"/>
</linearGradient>
<linearGradient id="paint13_linear_2683_44079" x1="143.245" y1="3" x2="143.245" y2="43" gradientUnits="userSpaceOnUse">
<stop stop-color="#2E0A0A"/>
<stop offset="0.505208" stop-color="#251010"/>
<stop offset="1" stop-color="#1E1A1A"/>
</linearGradient>
<linearGradient id="paint14_linear_2683_44079" x1="143.245" y1="3" x2="143.245" y2="43" gradientUnits="userSpaceOnUse">
<stop stop-color="#2E0A0A"/>
<stop offset="0.505208" stop-color="#251010"/>
<stop offset="1" stop-color="#1E1A1A"/>
</linearGradient>
</defs>
</svg>
