<svg width="24" height="24" viewBox="0 0 24 24" fill="none" xmlns="http://www.w3.org/2000/svg">
<path d="M20.3333 3.53846H17.8333V2.76923C17.8333 2.56522 17.7455 2.36956 17.5893 2.2253C17.433 2.08104 17.221 2 17 2C16.779 2 16.567 2.08104 16.4107 2.2253C16.2545 2.36956 16.1667 2.56522 16.1667 2.76923V3.53846H7.83333V2.76923C7.83333 2.56522 7.74554 2.36956 7.58926 2.2253C7.43297 2.08104 7.22101 2 7 2C6.77899 2 6.56702 2.08104 6.41074 2.2253C6.25446 2.36956 6.16667 2.56522 6.16667 2.76923V3.53846H3.66667C3.22464 3.53846 2.80072 3.70055 2.48816 3.98907C2.17559 4.27758 2 4.6689 2 5.07692V20.4615C2 20.8696 2.17559 21.2609 2.48816 21.5494C2.80072 21.8379 3.22464 22 3.66667 22H20.3333C20.7754 22 21.1993 21.8379 21.5118 21.5494C21.8244 21.2609 22 20.8696 22 20.4615V5.07692C22 4.6689 21.8244 4.27758 21.5118 3.98907C21.1993 3.70055 20.7754 3.53846 20.3333 3.53846ZM10.3333 18.1538C10.3333 18.3579 10.2455 18.5535 10.0893 18.6978C9.93297 18.842 9.72101 18.9231 9.5 18.9231C9.27899 18.9231 9.06702 18.842 8.91074 18.6978C8.75446 18.5535 8.66667 18.3579 8.66667 18.1538V13.2442L8.20625 13.4577C8.00844 13.549 7.77945 13.564 7.56964 13.4995C7.35984 13.4349 7.1864 13.2961 7.0875 13.1135C6.9886 12.9309 6.97232 12.7195 7.04226 12.5258C7.11219 12.3322 7.26261 12.1721 7.46042 12.0808L9.12708 11.3115C9.25418 11.2528 9.39543 11.2251 9.53741 11.231C9.67938 11.2369 9.81737 11.2762 9.93825 11.3452C10.0591 11.4142 10.1589 11.5106 10.228 11.6252C10.2972 11.7398 10.3334 11.8688 10.3333 12V18.1538ZM16.1667 17.3846C16.3877 17.3846 16.5996 17.4657 16.7559 17.6099C16.9122 17.7542 17 17.9498 17 18.1538C17 18.3579 16.9122 18.5535 16.7559 18.6978C16.5996 18.842 16.3877 18.9231 16.1667 18.9231H12.8333C12.6786 18.9231 12.5269 18.8833 12.3952 18.8082C12.2636 18.7331 12.1572 18.6256 12.088 18.4979C12.0188 18.3701 11.9895 18.227 12.0034 18.0848C12.0173 17.9425 12.0738 17.8066 12.1667 17.6923L15.1646 14.0029C15.2328 13.9191 15.2817 13.8233 15.3083 13.7214C15.335 13.6196 15.3388 13.5137 15.3196 13.4104C15.3003 13.3072 15.2584 13.2086 15.1964 13.1208C15.1344 13.033 15.0536 12.9578 14.959 12.8999C14.8644 12.842 14.7579 12.8025 14.6462 12.7839C14.5344 12.7653 14.4198 12.7679 14.3092 12.7917C14.1986 12.8155 14.0945 12.8599 14.0032 12.9222C13.9118 12.9844 13.8353 13.0633 13.7781 13.1538C13.725 13.2441 13.6529 13.3237 13.5659 13.3878C13.479 13.4519 13.379 13.4993 13.2719 13.5271C13.1648 13.555 13.0527 13.5628 12.9423 13.55C12.8319 13.5373 12.7253 13.5042 12.629 13.4529C12.5326 13.4015 12.4484 13.3328 12.3812 13.2509C12.3141 13.169 12.2654 13.0755 12.238 12.9759C12.2107 12.8763 12.2052 12.7727 12.2219 12.6712C12.2386 12.5696 12.2772 12.4722 12.3354 12.3846C12.6107 11.9449 13.0354 11.6013 13.5438 11.407C14.0521 11.2128 14.6157 11.1787 15.1471 11.3102C15.6785 11.4416 16.1482 11.7312 16.4831 12.1341C16.8181 12.537 16.9998 13.0306 17 13.5385C17.0018 14.0401 16.8246 14.5284 16.4958 14.9279L14.5 17.3846H16.1667ZM3.66667 8.15385V5.07692H6.16667V5.84615C6.16667 6.05017 6.25446 6.24582 6.41074 6.39008C6.56702 6.53434 6.77899 6.61538 7 6.61538C7.22101 6.61538 7.43297 6.53434 7.58926 6.39008C7.74554 6.24582 7.83333 6.05017 7.83333 5.84615V5.07692H16.1667V5.84615C16.1667 6.05017 16.2545 6.24582 16.4107 6.39008C16.567 6.53434 16.779 6.61538 17 6.61538C17.221 6.61538 17.433 6.53434 17.5893 6.39008C17.7455 6.24582 17.8333 6.05017 17.8333 5.84615V5.07692H20.3333V8.15385H3.66667Z" fill="#1E1F21"/>
</svg>
