<svg width="42" height="42" viewBox="0 0 42 42" fill="none" xmlns="http://www.w3.org/2000/svg">
<rect x="0.5" y="0.5" width="41" height="41" rx="20.5" stroke="#525558"/>
<path d="M28.2 16.4706H13.8C13.5878 16.4706 13.3843 16.3404 13.2343 16.1088C13.0843 15.8771 13 15.5629 13 15.2353C13 14.9077 13.0843 14.5935 13.2343 14.3618C13.3843 14.1301 13.5878 14 13.8 14H28.2C28.4122 14 28.6157 14.1301 28.7657 14.3618C28.9157 14.5935 29 14.9077 29 15.2353C29 15.5629 28.9157 15.8771 28.7657 16.1088C28.6157 16.3404 28.4122 16.4706 28.2 16.4706ZM25.5333 22.2353H16.4667C16.2545 22.2353 16.051 22.1051 15.901 21.8735C15.751 21.6418 15.6667 21.3276 15.6667 21C15.6667 20.6724 15.751 20.3582 15.901 20.1265C16.051 19.8949 16.2545 19.7647 16.4667 19.7647H25.5333C25.7455 19.7647 25.949 19.8949 26.099 20.1265C26.249 20.3582 26.3333 20.6724 26.3333 21C26.3333 21.3276 26.249 21.6418 26.099 21.8735C25.949 22.1051 25.7455 22.2353 25.5333 22.2353ZM22.3333 28H19.6667C19.4545 28 19.251 27.8699 19.101 27.6382C18.951 27.4065 18.8667 27.0923 18.8667 26.7647C18.8667 26.4371 18.951 26.1229 19.101 25.8912C19.251 25.6596 19.4545 25.5294 19.6667 25.5294H22.3333C22.5455 25.5294 22.749 25.6596 22.899 25.8912C23.049 26.1229 23.1333 26.4371 23.1333 26.7647C23.1333 27.0923 23.049 27.4065 22.899 27.6382C22.749 27.8699 22.5455 28 22.3333 28Z" fill="#525558"/>
</svg>
