<svg width="24" height="24" viewBox="0 0 24 24" fill="none" xmlns="http://www.w3.org/2000/svg">
<path d="M2 19.7143V9.42857C2 9.06667 2.08875 8.72381 2.26625 8.4C2.44375 8.07619 2.68833 7.80952 3 7.6L10.5 2.45714C10.9375 2.15238 11.4375 2 12 2C12.5625 2 13.0625 2.15238 13.5 2.45714L21 7.6C21.3125 7.80952 21.5575 8.07619 21.735 8.4C21.9125 8.72381 22.0008 9.06667 22 9.42857V19.7143C22 20.3429 21.755 20.8811 21.265 21.3291C20.775 21.7771 20.1867 22.0008 19.5 22H15.75C15.3958 22 15.0992 21.8903 14.86 21.6709C14.6208 21.4514 14.5008 21.1802 14.5 20.8571V15.1429C14.5 14.819 14.38 14.5478 14.14 14.3291C13.9 14.1105 13.6033 14.0008 13.25 14H10.75C10.3958 14 10.0992 14.1097 9.86 14.3291C9.62083 14.5486 9.50083 14.8198 9.5 15.1429V20.8571C9.5 21.181 9.38 21.4526 9.14 21.672C8.9 21.8914 8.60333 22.0008 8.25 22H4.5C3.8125 22 3.22417 21.7764 2.735 21.3291C2.24583 20.8819 2.00083 20.3436 2 19.7143Z" fill="white"/>
</svg>
