<svg width="42" height="42" viewBox="0 0 42 42" fill="none" xmlns="http://www.w3.org/2000/svg">
<rect x="0.5" y="0.5" width="41" height="41" rx="20.5" stroke="#525558"/>
<path fill-rule="evenodd" clip-rule="evenodd" d="M21.2931 18.7108C21.1056 18.5236 21.0003 18.2698 21.0003 18.0051C21.0003 17.7404 21.1056 17.4865 21.2931 17.2994L24.2933 14.3047C24.3856 14.2094 24.4959 14.1334 24.618 14.081C24.74 14.0287 24.8712 14.0012 25.004 14C25.1368 13.9989 25.2685 14.0241 25.3914 14.0743C25.5143 14.1245 25.6259 14.1986 25.7198 14.2924C25.8137 14.3861 25.888 14.4975 25.9383 14.6202C25.9886 14.7429 26.0139 14.8743 26.0127 15.0069C26.0116 15.1394 25.984 15.2704 25.9316 15.3922C25.8791 15.514 25.803 15.6241 25.7074 15.7162L22.7072 18.7108C22.5197 18.8979 22.2653 19.0031 22.0002 19.0031C21.735 19.0031 21.4806 18.8979 21.2931 18.7108Z" fill="#525558"/>
<path fill-rule="evenodd" clip-rule="evenodd" d="M28.7072 18.7108C28.5197 18.8979 28.2653 19.0031 28.0001 19.0031C27.735 19.0031 27.4806 18.8979 27.2931 18.7108L24.2929 15.7162C24.1107 15.5279 24.0099 15.2758 24.0122 15.014C24.0144 14.7523 24.1196 14.502 24.305 14.3169C24.4905 14.1318 24.7413 14.0268 25.0035 14.0245C25.2657 14.0223 25.5183 14.1229 25.707 14.3047L28.7072 17.2993C28.8947 17.4865 29 17.7404 29 18.0051C29 18.2697 28.8947 18.5236 28.7072 18.7108Z" fill="#525558"/>
<path fill-rule="evenodd" clip-rule="evenodd" d="M25.0002 16.0086C25.2655 16.0086 25.5198 16.1137 25.7074 16.3009C25.8949 16.4881 26.0003 16.742 26.0003 17.0068V24.9924C26.0003 25.2571 25.8949 25.511 25.7074 25.6982C25.5198 25.8854 25.2655 25.9906 25.0002 25.9906C24.735 25.9906 24.4806 25.8854 24.2931 25.6982C24.1055 25.511 24.0002 25.2571 24.0002 24.9924V17.0068C24.0002 16.742 24.1055 16.4881 24.2931 16.3009C24.4806 16.1137 24.735 16.0086 25.0002 16.0086ZM20.7069 23.2885C20.8944 23.4756 20.9997 23.7295 20.9997 23.9942C20.9997 24.2589 20.8944 24.5127 20.7069 24.6999L17.7067 27.6945C17.5181 27.8764 17.2654 27.977 17.0032 27.9747C16.741 27.9724 16.4902 27.8674 16.3047 27.6824C16.1193 27.4973 16.0141 27.2469 16.0119 26.9852C16.0096 26.7235 16.1104 26.4713 16.2926 26.2831L19.2928 23.2885C19.4803 23.1013 19.7347 22.9962 19.9998 22.9962C20.265 22.9962 20.5194 23.1013 20.7069 23.2885Z" fill="#525558"/>
<path fill-rule="evenodd" clip-rule="evenodd" d="M13.2928 23.2892C13.4804 23.1021 13.7347 22.9969 13.9999 22.9969C14.265 22.9969 14.5194 23.1021 14.7069 23.2892L17.7071 26.2838C17.8027 26.3759 17.8789 26.486 17.9313 26.6078C17.9837 26.7296 18.0113 26.8606 18.0124 26.9931C18.0136 27.1257 17.9883 27.2571 17.938 27.3798C17.8877 27.5025 17.8134 27.6139 17.7195 27.7076C17.6256 27.8014 17.514 27.8755 17.3911 27.9257C17.2682 27.9759 17.1365 28.0011 17.0037 28C16.8709 27.9988 16.7397 27.9713 16.6177 27.919C16.4956 27.8666 16.3853 27.7906 16.293 27.6953L13.2928 24.7006C13.1053 24.5135 13 24.2596 13 23.9949C13 23.7302 13.1053 23.4764 13.2928 23.2892Z" fill="#525558"/>
<path fill-rule="evenodd" clip-rule="evenodd" d="M17.0002 25.9906C16.7349 25.9906 16.4806 25.8854 16.293 25.6982C16.1055 25.511 16.0001 25.2571 16.0001 24.9924V17.0068C16.0001 16.742 16.1055 16.4881 16.293 16.3009C16.4806 16.1137 16.7349 16.0086 17.0002 16.0086C17.2654 16.0086 17.5198 16.1137 17.7073 16.3009C17.8949 16.4881 18.0003 16.742 18.0003 17.0068V24.9924C18.0003 25.2571 17.8949 25.511 17.7073 25.6982C17.5198 25.8854 17.2654 25.9906 17.0002 25.9906Z" fill="#525558"/>
</svg>
