<svg width="24" height="24" viewBox="0 0 24 24" fill="none" xmlns="http://www.w3.org/2000/svg">
<path d="M10.4037 2.09852C10.5063 2.03428 10.6268 2 10.75 2C10.8732 2 10.9937 2.03428 11.0963 2.09852C13.4561 3.59583 16.1461 4.5697 18.9637 4.9468C19.1126 4.9669 19.2488 5.03685 19.3473 5.14382C19.4458 5.25079 19.5 5.38761 19.5 5.52916V10.941C18.0976 10.2669 16.4919 10.0662 14.9512 10.3727C13.4106 10.6791 12.0284 11.4741 11.0358 12.6246C10.0431 13.7752 9.50022 15.2115 9.49781 16.6936C9.49539 18.1757 10.0336 19.6136 11.0225 20.767L10.975 20.7847C10.8302 20.8373 10.6698 20.8373 10.525 20.7847C4.885 18.7411 2 15.3999 2 10.8234V5.52916C2.00002 5.38743 2.05441 5.25048 2.15317 5.14348C2.25192 5.03648 2.3884 4.96664 2.5375 4.9468C5.35471 4.56953 8.04429 3.59567 10.4037 2.09852ZM22 16.7058C22 15.3017 21.4074 13.9551 20.3525 12.9622C19.2976 11.9694 17.8668 11.4116 16.375 11.4116C14.8832 11.4116 13.4524 11.9694 12.3975 12.9622C11.3426 13.9551 10.75 15.3017 10.75 16.7058C10.75 18.1099 11.3426 19.4565 12.3975 20.4494C13.4524 21.4422 14.8832 22 16.375 22C17.8668 22 19.2976 21.4422 20.3525 20.4494C21.4074 19.4565 22 18.1099 22 16.7058ZM19.3175 14.5246C19.3757 14.5792 19.4219 14.6441 19.4534 14.7156C19.4849 14.7871 19.5011 14.8637 19.5011 14.9411C19.5011 15.0184 19.4849 15.0951 19.4534 15.1665C19.4219 15.238 19.3757 15.3029 19.3175 15.3575L15.5675 18.887C15.5094 18.9418 15.4405 18.9853 15.3645 19.0149C15.2886 19.0446 15.2072 19.0598 15.125 19.0598C15.0428 19.0598 14.9614 19.0446 14.8855 19.0149C14.8095 18.9853 14.7406 18.9418 14.6825 18.887L13.4325 17.7105C13.3151 17.6001 13.2492 17.4503 13.2492 17.294C13.2492 17.1378 13.3151 16.988 13.4325 16.8776C13.5499 16.7671 13.709 16.7051 13.875 16.7051C14.041 16.7051 14.2001 16.7671 14.3175 16.8776L15.125 17.6388L18.4325 14.5246C18.4906 14.4698 18.5595 14.4263 18.6355 14.3967C18.7114 14.367 18.7928 14.3518 18.875 14.3518C18.9572 14.3518 19.0386 14.367 19.1145 14.3967C19.1905 14.4263 19.2594 14.4698 19.3175 14.5246Z" fill="#1E1F21"/>
</svg>
