<svg width="24" height="24" viewBox="0 0 24 24" fill="none" xmlns="http://www.w3.org/2000/svg">
<path d="M20.4615 4.75003C20.4615 4.02068 20.1644 3.3212 19.6354 2.80547C19.1065 2.28973 18.3891 2 17.641 2H4.82051C4.07247 2 3.35506 2.28973 2.82611 2.80547C2.29716 3.3212 2 4.02068 2 4.75003V17.2502C2 17.9795 2.29716 18.679 2.82611 19.1947C3.35506 19.7105 4.07247 20.0002 4.82051 20.0002H11.2533C10.4721 18.8119 10.1109 17.4072 10.2246 16.0002H5.84615C5.65126 16.0001 5.46365 15.9279 5.32124 15.7982C5.17883 15.6685 5.09223 15.4909 5.07895 15.3013C5.06566 15.1117 5.12668 14.9243 5.24967 14.7768C5.37267 14.6294 5.54846 14.533 5.74154 14.5071L5.84615 14.5001H10.5262C10.8373 13.5642 11.3623 12.7094 12.0615 12.0001H5.84615C5.65126 12.0001 5.46365 11.9279 5.32124 11.7981C5.17883 11.6684 5.09223 11.4908 5.07895 11.3012C5.06566 11.1116 5.12668 10.9242 5.24967 10.7768C5.37267 10.6294 5.54846 10.533 5.74154 10.5071L5.84615 10.5001H13.5385C13.7046 10.5001 13.8595 10.5521 13.9846 10.6401C14.8856 10.2185 15.8724 9.99972 16.8718 10.0001C18.1441 9.99818 19.3902 10.3529 20.4615 11.0221V4.75003ZM16.6154 6.50005C16.8103 6.50011 16.9979 6.5723 17.1403 6.70202C17.2827 6.83175 17.3693 7.00935 17.3826 7.19894C17.3959 7.38852 17.3349 7.57595 17.2119 7.72336C17.0889 7.87077 16.9131 7.96717 16.72 7.99307L16.6154 8.00007H5.84615C5.65126 8.00001 5.46365 7.92782 5.32124 7.79809C5.17883 7.66836 5.09223 7.49076 5.07895 7.30118C5.06566 7.1116 5.12668 6.92416 5.24967 6.77675C5.37267 6.62935 5.54846 6.53295 5.74154 6.50705L5.84615 6.50005H16.6154ZM11.7436 14.6291L12.2021 15.0591C12.4009 15.2457 12.5591 15.4695 12.6671 15.7172C12.7752 15.9648 12.8309 16.2311 12.8309 16.5002C12.8309 16.7692 12.7752 17.0356 12.6671 17.2832C12.5591 17.5308 12.4009 17.7546 12.2021 17.9412L11.7436 18.3712C11.9487 18.9452 12.2462 19.4742 12.6185 19.9412L13.2359 19.7632C13.5026 19.6865 13.7825 19.6635 14.0587 19.6956C14.3348 19.7277 14.6013 19.8141 14.8421 19.9498C15.0829 20.0854 15.2929 20.2673 15.4593 20.4845C15.6257 20.7017 15.7451 20.9496 15.8103 21.2132L15.9887 21.9282C16.5733 22.0239 17.1702 22.0239 17.7549 21.9282L17.9323 21.2122C17.9975 20.9486 18.117 20.7007 18.2836 20.4835C18.4501 20.2664 18.6602 20.0845 18.9011 19.9489C19.142 19.8134 19.4087 19.7271 19.6848 19.6951C19.961 19.6632 20.241 19.6864 20.5077 19.7632L21.1251 19.9412C21.4964 19.4742 21.7938 18.9452 22 18.3712L21.5415 17.9412C21.3427 17.7546 21.1845 17.5308 21.0765 17.2832C20.9684 17.0356 20.9127 16.7692 20.9127 16.5002C20.9127 16.2311 20.9684 15.9648 21.0765 15.7172C21.1845 15.4695 21.3427 15.2457 21.5415 15.0591L22 14.6291C21.7981 14.0628 21.5026 13.5325 21.1251 13.0591L20.5077 13.2371C20.241 13.3138 19.9611 13.3368 19.6849 13.3047C19.4088 13.2727 19.1423 13.1862 18.9015 13.0506C18.6607 12.9149 18.4507 12.733 18.2843 12.5158C18.1179 12.2986 17.9985 12.0507 17.9333 11.7871L17.7549 11.0721C17.1699 10.9763 16.5727 10.9763 15.9877 11.0721L15.8113 11.7881C15.7461 12.0517 15.6265 12.2996 15.46 12.5168C15.2934 12.734 15.0833 12.9158 14.8425 13.0514C14.6016 13.1869 14.3349 13.2733 14.0588 13.3052C13.7826 13.3371 13.5026 13.314 13.2359 13.2371L12.6185 13.0591C12.241 13.5325 11.9455 14.0628 11.7436 14.6291ZM16.8718 18.0002C16.0513 18.0002 15.3846 17.3282 15.3846 16.5002C15.3846 15.6722 16.0513 15.0001 16.8718 15.0001C17.6923 15.0001 18.359 15.6722 18.359 16.5002C18.359 17.3282 17.6923 18.0002 16.8718 18.0002Z" fill="#1E1F21"/>
</svg>
