<svg width="24" height="24" viewBox="0 0 24 24" fill="none" xmlns="http://www.w3.org/2000/svg">
<path d="M4.85714 6.23077C4.85714 5.1087 5.27104 4.03259 6.00779 3.23916C6.74454 2.44574 7.74379 2 8.78571 2C9.82764 2 10.8269 2.44574 11.5636 3.23916C12.3004 4.03259 12.7143 5.1087 12.7143 6.23077C12.7143 7.35284 12.3004 8.42895 11.5636 9.22237C10.8269 10.0158 9.82764 10.4615 8.78571 10.4615C7.74379 10.4615 6.74454 10.0158 6.00779 9.22237C5.27104 8.42895 4.85714 7.35284 4.85714 6.23077ZM14.1429 8.53846C14.1429 8.08388 14.226 7.63376 14.3875 7.21378C14.5491 6.79381 14.7858 6.41221 15.0843 6.09078C15.3828 5.76935 15.7371 5.51437 16.1271 5.34041C16.5171 5.16646 16.935 5.07692 17.3571 5.07692C17.7792 5.07692 18.1972 5.16646 18.5872 5.34041C18.9772 5.51437 19.3315 5.76935 19.63 6.09078C19.9285 6.41221 20.1652 6.79381 20.3268 7.21378C20.4883 7.63376 20.5714 8.08388 20.5714 8.53846C20.5714 9.45651 20.2328 10.337 19.63 10.9861C19.0272 11.6353 18.2096 12 17.3571 12C16.5047 12 15.6871 11.6353 15.0843 10.9861C14.4815 10.337 14.1429 9.45651 14.1429 8.53846ZM2 19.3077C2 17.3696 2.71492 15.5108 3.98749 14.1404C5.26006 12.7699 6.98603 12 8.78571 12C10.5854 12 12.3114 12.7699 13.5839 14.1404C14.8565 15.5108 15.5714 17.3696 15.5714 19.3077V19.3108L15.5705 19.4328C15.5685 19.5632 15.5357 19.691 15.4752 19.804C15.4147 19.9171 15.3285 20.0117 15.2248 20.079C13.2811 21.3393 11.0545 22.0036 8.78571 22C6.43143 22 4.22762 21.2985 2.34762 20.079C2.24367 20.0118 2.1573 19.9172 2.09665 19.8042C2.03601 19.6911 2.00307 19.5633 2.00095 19.4328L2 19.3077ZM17 19.3108L16.999 19.4585C16.9937 19.8003 16.9179 20.1366 16.7771 20.4431C16.9689 20.4554 17.1622 20.4615 17.3571 20.4615C18.8771 20.4615 20.3162 20.082 21.5962 19.4061C21.7117 19.3453 21.8099 19.2521 21.8803 19.1362C21.9507 19.0203 21.9907 18.886 21.9962 18.7477L22 18.5385C22.0001 17.6952 21.8022 16.8656 21.4247 16.1268C21.0471 15.3881 20.5022 14.7641 19.8407 14.313C19.1791 13.862 18.4223 13.5984 17.6407 13.5469C16.8592 13.4954 16.0782 13.6576 15.3705 14.0185C16.4298 15.5457 17.0012 17.4014 16.999 19.3077L17 19.3108Z" fill="#1E1F21"/>
</svg>
