<svg width="24" height="24" viewBox="0 0 24 24" fill="none" xmlns="http://www.w3.org/2000/svg">
<path d="M9.69095 7V2H4.30728C3.69535 2 3.10849 2.22576 2.67579 2.62763C2.24309 3.02949 2 3.57454 2 4.14286V19.8571C2 20.4255 2.24309 20.9705 2.67579 21.3724C3.10849 21.7742 3.69535 22 4.30728 22H15.0746C15.6865 22 16.2734 21.7742 16.7061 21.3724C17.1388 20.9705 17.3819 20.4255 17.3819 19.8571V16.3743L14.8177 18.7557C14.1871 19.3414 13.3964 19.7557 12.532 19.9571L10.2278 20.4914C9.5986 20.6389 8.93437 20.5861 8.34127 20.3416C7.74816 20.0972 7.26043 19.6751 6.95605 19.1429H4.30728C4.10331 19.1429 3.90769 19.0676 3.76345 18.9336C3.61922 18.7997 3.53819 18.618 3.53819 18.4286C3.53819 18.2391 3.61922 18.0574 3.76345 17.9235C3.90769 17.7895 4.10331 17.7143 4.30728 17.7143H6.62072C6.63271 17.5471 6.6605 17.3812 6.70378 17.2186L7.28061 15.0786C7.49665 14.2759 7.94321 13.5427 8.57268 12.9571L12.6812 9.14286H11.9982C11.3863 9.14286 10.7994 8.91709 10.3667 8.51523C9.93404 8.11337 9.69095 7.56832 9.69095 7ZM11.2291 2.35714L15.6084 6.42429L14.2194 7.71429H11.9982C11.7943 7.71429 11.5986 7.63903 11.4544 7.50508C11.3102 7.37112 11.2291 7.18944 11.2291 7V2.35714ZM9.66018 13.9671L17.0896 7.06714C17.3569 6.81913 17.6741 6.62244 18.0232 6.48829C18.3723 6.35414 18.7464 6.28516 19.1242 6.28529C19.502 6.28542 19.8761 6.35466 20.2251 6.48906C20.574 6.62345 20.8911 6.82037 21.1582 7.06857C21.4252 7.31677 21.637 7.61139 21.7814 7.9356C21.9259 8.25982 22.0001 8.60728 22 8.95815C21.9999 9.30903 21.9253 9.65644 21.7806 9.98055C21.6359 10.3047 21.4239 10.5991 21.1566 10.8471L13.7272 17.7457C13.2942 18.1477 12.752 18.4331 12.1582 18.5714L9.854 19.1057C9.62488 19.1587 9.38489 19.1558 9.15734 19.0973C8.9298 19.0387 8.72243 18.9265 8.55539 18.7715C8.38834 18.6165 8.26731 18.424 8.20403 18.2127C8.14076 18.0014 8.1374 17.7786 8.19429 17.5657L8.77111 15.4257C8.9201 14.8743 9.22737 14.3707 9.66018 13.9686" fill="#1E1F21"/>
</svg>
